<svg width="90" height="68" viewBox="0 0 90 68" fill="none" xmlns="http://www.w3.org/2000/svg">
<g filter="url(#filter0_d_1_741)">
<mask id="path-1-outside-1_1_741" maskUnits="userSpaceOnUse" x="10.0001" y="6" width="70" height="48" fill="black">
<rect fill="white" x="10.0001" y="6" width="70" height="48"/>
<path d="M21.6844 7.95C22.4511 7.31666 22.9511 7.45 23.1844 8.35C23.3178 8.88333 23.3178 9.55 23.1844 10.35C22.9178 11.85 22.7844 12.7167 22.7844 12.95C22.7844 13.1833 22.9178 13.4167 23.1844 13.65C23.5844 14.0167 24.3011 14.4167 25.3344 14.85C25.4678 14.9167 25.7011 15.0333 26.0344 15.2C26.4011 15.3333 26.6344 15.4167 26.7344 15.45C27.1344 15.6167 27.6178 15.8 28.1844 16C28.8178 16.2333 29.1844 16.3833 29.2844 16.45C29.3844 16.5167 29.7344 16.6667 30.3344 16.9C30.9011 17.1 31.7178 17.45 32.7844 17.95C33.7511 18.45 34.4678 18.75 34.9344 18.85C35.6344 19.0167 35.9678 19.2167 35.9344 19.45C35.9344 19.5833 35.7844 19.7 35.4844 19.8C35.2511 19.8667 34.4178 19.8333 32.9844 19.7C31.5844 19.5333 30.6678 19.3833 30.2344 19.25C30.1678 19.2167 29.5011 19.05 28.2344 18.75C27.1011 18.5167 25.7511 18.1333 24.1844 17.6C24.0511 17.5333 23.8844 17.4667 23.6844 17.4C22.5511 17 21.8678 16.8167 21.6344 16.85C21.4344 16.85 21.2011 17.1 20.9344 17.6C20.8678 17.6667 20.8178 17.7333 20.7844 17.8C19.7844 19.5333 18.6678 21.5667 17.4344 23.9C16.3344 26 15.5678 27.3333 15.1344 27.9C14.7344 28.4333 14.3178 28.6667 13.8844 28.6C13.7511 28.5667 13.6511 28.5167 13.5844 28.45C13.5178 28.35 13.5011 28.2 13.5344 28C13.5678 27.8 13.6511 27.5667 13.7844 27.3C13.9178 27.0333 14.1011 26.7 14.3344 26.3C14.8344 25.4333 15.5344 23.9333 16.4344 21.8C17.2344 19.9333 17.7511 18.7167 17.9844 18.15C19.4178 14.7833 20.2511 12.3333 20.4844 10.8C20.7178 9.36666 21.1178 8.41666 21.6844 7.95ZM39.6844 20.45C40.4178 20.0833 41.0011 19.8 41.4344 19.6C41.9011 19.3667 42.2844 19.2167 42.5844 19.15C42.8844 19.05 43.1011 19.0167 43.2344 19.05C43.3678 19.0833 43.4511 19.1833 43.4844 19.35C43.5178 19.5833 42.7011 20.2833 41.0344 21.45C39.4011 22.6167 37.7178 23.6667 35.9844 24.6C35.8844 24.6333 35.3344 24.9333 34.3344 25.5C33.6344 25.9 33.2678 26.1 33.2344 26.1C33.2011 26.1 32.2844 26.6333 30.4844 27.7C28.8178 28.7 27.3011 29.5833 25.9344 30.35C22.8011 32.0833 19.5344 34.0667 16.1344 36.3C13.0344 38.3333 11.5678 38.55 11.7344 36.95C11.7678 36.8167 11.8011 36.6833 11.8344 36.55C11.9344 36.0167 12.7844 35.1667 14.3844 34C15.9844 32.8333 18.0011 31.5833 20.4344 30.25C20.6344 30.15 20.9844 29.9667 21.4844 29.7C22.0178 29.4333 22.3844 29.2333 22.5844 29.1C22.8178 29 23.6011 28.5833 24.9344 27.85C25.2678 27.65 26.1178 27.1833 27.4844 26.45C28.4511 25.9167 29.9178 25.1667 31.8844 24.2C33.8844 23.2333 35.1844 22.6167 35.7844 22.35C36.6511 21.9833 37.9511 21.35 39.6844 20.45ZM38.3844 27.15C39.1178 26.7833 39.6178 26.6 39.8844 26.6C40.1844 26.5667 40.4511 26.7167 40.6844 27.05C40.8844 27.2833 41.0178 27.7333 41.0844 28.4C41.1511 29.0667 41.3011 31.3 41.5344 35.1C41.6678 37.2 41.7844 38.5167 41.8844 39.05C41.9844 39.65 42.0844 40.5667 42.1844 41.8C42.2511 42.9333 42.3344 43.8833 42.4344 44.65C42.6344 45.9167 42.7678 47.4833 42.8344 49.35C42.9344 51.2167 42.9178 52.2 42.7844 52.3C42.1511 52.6667 41.7344 51.9667 41.5344 50.2C41.5011 49.9667 41.4678 49.7333 41.4344 49.5C41.3678 48.5333 41.2178 47.4667 40.9844 46.3C39.8178 40.6333 39.1178 35.8833 38.8844 32.05C38.8511 30.9167 38.7344 30.35 38.5344 30.35C38.4678 30.35 38.3178 30.4333 38.0844 30.6C37.7844 30.8333 37.6011 30.95 37.5344 30.95C37.4344 30.95 37.1511 31.1 36.6844 31.4C36.3844 31.6333 35.5178 32.1167 34.0844 32.85C33.3178 33.25 32.3678 33.75 31.2344 34.35C29.4678 35.35 28.3011 35.9333 27.7344 36.1C27.2011 36.2667 26.8178 36.15 26.5844 35.75C26.3178 35.3167 26.3178 34.8333 26.5844 34.3C26.8844 33.7333 27.3678 33.2833 28.0344 32.95C28.6344 32.6167 31.1011 31.2333 35.4344 28.8C35.8344 28.5667 36.8178 28.0167 38.3844 27.15ZM56.4501 7.95C57.2167 7.31666 57.7167 7.45 57.9501 8.35C58.0834 8.88333 58.0834 9.55 57.9501 10.35C57.6834 11.85 57.5501 12.7167 57.5501 12.95C57.5501 13.1833 57.6834 13.4167 57.9501 13.65C58.3501 14.0167 59.0667 14.4167 60.1001 14.85C60.2334 14.9167 60.4667 15.0333 60.8001 15.2C61.1667 15.3333 61.4001 15.4167 61.5001 15.45C61.9001 15.6167 62.3834 15.8 62.9501 16C63.5834 16.2333 63.9501 16.3833 64.0501 16.45C64.1501 16.5167 64.5001 16.6667 65.1001 16.9C65.6667 17.1 66.4834 17.45 67.5501 17.95C68.5167 18.45 69.2334 18.75 69.7001 18.85C70.4001 19.0167 70.7334 19.2167 70.7001 19.45C70.7001 19.5833 70.5501 19.7 70.2501 19.8C70.0167 19.8667 69.1834 19.8333 67.7501 19.7C66.3501 19.5333 65.4334 19.3833 65.0001 19.25C64.9334 19.2167 64.2667 19.05 63.0001 18.75C61.8667 18.5167 60.5167 18.1333 58.9501 17.6C58.8167 17.5333 58.6501 17.4667 58.4501 17.4C57.3167 17 56.6334 16.8167 56.4001 16.85C56.2001 16.85 55.9667 17.1 55.7001 17.6C55.6334 17.6667 55.5834 17.7333 55.5501 17.8C54.5501 19.5333 53.4334 21.5667 52.2001 23.9C51.1001 26 50.3334 27.3333 49.9001 27.9C49.5001 28.4333 49.0834 28.6667 48.6501 28.6C48.5167 28.5667 48.4167 28.5167 48.3501 28.45C48.2834 28.35 48.2667 28.2 48.3001 28C48.3334 27.8 48.4167 27.5667 48.5501 27.3C48.6834 27.0333 48.8667 26.7 49.1001 26.3C49.6001 25.4333 50.3001 23.9333 51.2001 21.8C52.0001 19.9333 52.5167 18.7167 52.7501 18.15C54.1834 14.7833 55.0167 12.3333 55.2501 10.8C55.4834 9.36666 55.8834 8.41666 56.4501 7.95ZM74.4501 20.45C75.1834 20.0833 75.7667 19.8 76.2001 19.6C76.6667 19.3667 77.0501 19.2167 77.3501 19.15C77.6501 19.05 77.8667 19.0167 78.0001 19.05C78.1334 19.0833 78.2167 19.1833 78.2501 19.35C78.2834 19.5833 77.4667 20.2833 75.8001 21.45C74.1667 22.6167 72.4834 23.6667 70.7501 24.6C70.6501 24.6333 70.1001 24.9333 69.1001 25.5C68.4001 25.9 68.0334 26.1 68.0001 26.1C67.9667 26.1 67.0501 26.6333 65.2501 27.7C63.5834 28.7 62.0667 29.5833 60.7001 30.35C57.5667 32.0833 54.3001 34.0667 50.9001 36.3C47.8001 38.3333 46.3334 38.55 46.5001 36.95C46.5334 36.8167 46.5667 36.6833 46.6001 36.55C46.7001 36.0167 47.5501 35.1667 49.1501 34C50.7501 32.8333 52.7667 31.5833 55.2001 30.25C55.4001 30.15 55.7501 29.9667 56.2501 29.7C56.7834 29.4333 57.1501 29.2333 57.3501 29.1C57.5834 29 58.3667 28.5833 59.7001 27.85C60.0334 27.65 60.8834 27.1833 62.2501 26.45C63.2167 25.9167 64.6834 25.1667 66.6501 24.2C68.6501 23.2333 69.9501 22.6167 70.5501 22.35C71.4167 21.9833 72.7167 21.35 74.4501 20.45ZM73.1501 27.15C73.8834 26.7833 74.3834 26.6 74.6501 26.6C74.9501 26.5667 75.2167 26.7167 75.4501 27.05C75.6501 27.2833 75.7834 27.7333 75.8501 28.4C75.9167 29.0667 76.0667 31.3 76.3001 35.1C76.4334 37.2 76.5501 38.5167 76.6501 39.05C76.7501 39.65 76.8501 40.5667 76.9501 41.8C77.0167 42.9333 77.1001 43.8833 77.2001 44.65C77.4001 45.9167 77.5334 47.4833 77.6001 49.35C77.7001 51.2167 77.6834 52.2 77.5501 52.3C76.9167 52.6667 76.5001 51.9667 76.3001 50.2C76.2667 49.9667 76.2334 49.7333 76.2001 49.5C76.1334 48.5333 75.9834 47.4667 75.7501 46.3C74.5834 40.6333 73.8834 35.8833 73.6501 32.05C73.6167 30.9167 73.5001 30.35 73.3001 30.35C73.2334 30.35 73.0834 30.4333 72.8501 30.6C72.5501 30.8333 72.3667 30.95 72.3001 30.95C72.2001 30.95 71.9167 31.1 71.4501 31.4C71.1501 31.6333 70.2834 32.1167 68.8501 32.85C68.0834 33.25 67.1334 33.75 66.0001 34.35C64.2334 35.35 63.0667 35.9333 62.5001 36.1C61.9667 36.2667 61.5834 36.15 61.3501 35.75C61.0834 35.3167 61.0834 34.8333 61.3501 34.3C61.6501 33.7333 62.1334 33.2833 62.8001 32.95C63.4001 32.6167 65.8667 31.2333 70.2001 28.8C70.6001 28.5667 71.5834 28.0167 73.1501 27.15Z"/>
</mask>
<path d="M21.6844 7.95C22.4511 7.31666 22.9511 7.45 23.1844 8.35C23.3178 8.88333 23.3178 9.55 23.1844 10.35C22.9178 11.85 22.7844 12.7167 22.7844 12.95C22.7844 13.1833 22.9178 13.4167 23.1844 13.65C23.5844 14.0167 24.3011 14.4167 25.3344 14.85C25.4678 14.9167 25.7011 15.0333 26.0344 15.2C26.4011 15.3333 26.6344 15.4167 26.7344 15.45C27.1344 15.6167 27.6178 15.8 28.1844 16C28.8178 16.2333 29.1844 16.3833 29.2844 16.45C29.3844 16.5167 29.7344 16.6667 30.3344 16.9C30.9011 17.1 31.7178 17.45 32.7844 17.95C33.7511 18.45 34.4678 18.75 34.9344 18.85C35.6344 19.0167 35.9678 19.2167 35.9344 19.45C35.9344 19.5833 35.7844 19.7 35.4844 19.8C35.2511 19.8667 34.4178 19.8333 32.9844 19.7C31.5844 19.5333 30.6678 19.3833 30.2344 19.25C30.1678 19.2167 29.5011 19.05 28.2344 18.75C27.1011 18.5167 25.7511 18.1333 24.1844 17.6C24.0511 17.5333 23.8844 17.4667 23.6844 17.4C22.5511 17 21.8678 16.8167 21.6344 16.85C21.4344 16.85 21.2011 17.1 20.9344 17.6C20.8678 17.6667 20.8178 17.7333 20.7844 17.8C19.7844 19.5333 18.6678 21.5667 17.4344 23.9C16.3344 26 15.5678 27.3333 15.1344 27.9C14.7344 28.4333 14.3178 28.6667 13.8844 28.6C13.7511 28.5667 13.6511 28.5167 13.5844 28.45C13.5178 28.35 13.5011 28.2 13.5344 28C13.5678 27.8 13.6511 27.5667 13.7844 27.3C13.9178 27.0333 14.1011 26.7 14.3344 26.3C14.8344 25.4333 15.5344 23.9333 16.4344 21.8C17.2344 19.9333 17.7511 18.7167 17.9844 18.15C19.4178 14.7833 20.2511 12.3333 20.4844 10.8C20.7178 9.36666 21.1178 8.41666 21.6844 7.95ZM39.6844 20.45C40.4178 20.0833 41.0011 19.8 41.4344 19.6C41.9011 19.3667 42.2844 19.2167 42.5844 19.15C42.8844 19.05 43.1011 19.0167 43.2344 19.05C43.3678 19.0833 43.4511 19.1833 43.4844 19.35C43.5178 19.5833 42.7011 20.2833 41.0344 21.45C39.4011 22.6167 37.7178 23.6667 35.9844 24.6C35.8844 24.6333 35.3344 24.9333 34.3344 25.5C33.6344 25.9 33.2678 26.1 33.2344 26.1C33.2011 26.1 32.2844 26.6333 30.4844 27.7C28.8178 28.7 27.3011 29.5833 25.9344 30.35C22.8011 32.0833 19.5344 34.0667 16.1344 36.3C13.0344 38.3333 11.5678 38.55 11.7344 36.95C11.7678 36.8167 11.8011 36.6833 11.8344 36.55C11.9344 36.0167 12.7844 35.1667 14.3844 34C15.9844 32.8333 18.0011 31.5833 20.4344 30.25C20.6344 30.15 20.9844 29.9667 21.4844 29.7C22.0178 29.4333 22.3844 29.2333 22.5844 29.1C22.8178 29 23.6011 28.5833 24.9344 27.85C25.2678 27.65 26.1178 27.1833 27.4844 26.45C28.4511 25.9167 29.9178 25.1667 31.8844 24.2C33.8844 23.2333 35.1844 22.6167 35.7844 22.35C36.6511 21.9833 37.9511 21.35 39.6844 20.45ZM38.3844 27.15C39.1178 26.7833 39.6178 26.6 39.8844 26.6C40.1844 26.5667 40.4511 26.7167 40.6844 27.05C40.8844 27.2833 41.0178 27.7333 41.0844 28.4C41.1511 29.0667 41.3011 31.3 41.5344 35.1C41.6678 37.2 41.7844 38.5167 41.8844 39.05C41.9844 39.65 42.0844 40.5667 42.1844 41.8C42.2511 42.9333 42.3344 43.8833 42.4344 44.65C42.6344 45.9167 42.7678 47.4833 42.8344 49.35C42.9344 51.2167 42.9178 52.2 42.7844 52.3C42.1511 52.6667 41.7344 51.9667 41.5344 50.2C41.5011 49.9667 41.4678 49.7333 41.4344 49.5C41.3678 48.5333 41.2178 47.4667 40.9844 46.3C39.8178 40.6333 39.1178 35.8833 38.8844 32.05C38.8511 30.9167 38.7344 30.35 38.5344 30.35C38.4678 30.35 38.3178 30.4333 38.0844 30.6C37.7844 30.8333 37.6011 30.95 37.5344 30.95C37.4344 30.95 37.1511 31.1 36.6844 31.4C36.3844 31.6333 35.5178 32.1167 34.0844 32.85C33.3178 33.25 32.3678 33.75 31.2344 34.35C29.4678 35.35 28.3011 35.9333 27.7344 36.1C27.2011 36.2667 26.8178 36.15 26.5844 35.75C26.3178 35.3167 26.3178 34.8333 26.5844 34.3C26.8844 33.7333 27.3678 33.2833 28.0344 32.95C28.6344 32.6167 31.1011 31.2333 35.4344 28.8C35.8344 28.5667 36.8178 28.0167 38.3844 27.15ZM56.4501 7.95C57.2167 7.31666 57.7167 7.45 57.9501 8.35C58.0834 8.88333 58.0834 9.55 57.9501 10.35C57.6834 11.85 57.5501 12.7167 57.5501 12.95C57.5501 13.1833 57.6834 13.4167 57.9501 13.65C58.3501 14.0167 59.0667 14.4167 60.1001 14.85C60.2334 14.9167 60.4667 15.0333 60.8001 15.2C61.1667 15.3333 61.4001 15.4167 61.5001 15.45C61.9001 15.6167 62.3834 15.8 62.9501 16C63.5834 16.2333 63.9501 16.3833 64.0501 16.45C64.1501 16.5167 64.5001 16.6667 65.1001 16.9C65.6667 17.1 66.4834 17.45 67.5501 17.95C68.5167 18.45 69.2334 18.75 69.7001 18.85C70.4001 19.0167 70.7334 19.2167 70.7001 19.45C70.7001 19.5833 70.5501 19.7 70.2501 19.8C70.0167 19.8667 69.1834 19.8333 67.7501 19.7C66.3501 19.5333 65.4334 19.3833 65.0001 19.25C64.9334 19.2167 64.2667 19.05 63.0001 18.75C61.8667 18.5167 60.5167 18.1333 58.9501 17.6C58.8167 17.5333 58.6501 17.4667 58.4501 17.4C57.3167 17 56.6334 16.8167 56.4001 16.85C56.2001 16.85 55.9667 17.1 55.7001 17.6C55.6334 17.6667 55.5834 17.7333 55.5501 17.8C54.5501 19.5333 53.4334 21.5667 52.2001 23.9C51.1001 26 50.3334 27.3333 49.9001 27.9C49.5001 28.4333 49.0834 28.6667 48.6501 28.6C48.5167 28.5667 48.4167 28.5167 48.3501 28.45C48.2834 28.35 48.2667 28.2 48.3001 28C48.3334 27.8 48.4167 27.5667 48.5501 27.3C48.6834 27.0333 48.8667 26.7 49.1001 26.3C49.6001 25.4333 50.3001 23.9333 51.2001 21.8C52.0001 19.9333 52.5167 18.7167 52.7501 18.15C54.1834 14.7833 55.0167 12.3333 55.2501 10.8C55.4834 9.36666 55.8834 8.41666 56.4501 7.95ZM74.4501 20.45C75.1834 20.0833 75.7667 19.8 76.2001 19.6C76.6667 19.3667 77.0501 19.2167 77.3501 19.15C77.6501 19.05 77.8667 19.0167 78.0001 19.05C78.1334 19.0833 78.2167 19.1833 78.2501 19.35C78.2834 19.5833 77.4667 20.2833 75.8001 21.45C74.1667 22.6167 72.4834 23.6667 70.7501 24.6C70.6501 24.6333 70.1001 24.9333 69.1001 25.5C68.4001 25.9 68.0334 26.1 68.0001 26.1C67.9667 26.1 67.0501 26.6333 65.2501 27.7C63.5834 28.7 62.0667 29.5833 60.7001 30.35C57.5667 32.0833 54.3001 34.0667 50.9001 36.3C47.8001 38.3333 46.3334 38.55 46.5001 36.95C46.5334 36.8167 46.5667 36.6833 46.6001 36.55C46.7001 36.0167 47.5501 35.1667 49.1501 34C50.7501 32.8333 52.7667 31.5833 55.2001 30.25C55.4001 30.15 55.7501 29.9667 56.2501 29.7C56.7834 29.4333 57.1501 29.2333 57.3501 29.1C57.5834 29 58.3667 28.5833 59.7001 27.85C60.0334 27.65 60.8834 27.1833 62.2501 26.45C63.2167 25.9167 64.6834 25.1667 66.6501 24.2C68.6501 23.2333 69.9501 22.6167 70.5501 22.35C71.4167 21.9833 72.7167 21.35 74.4501 20.45ZM73.1501 27.15C73.8834 26.7833 74.3834 26.6 74.6501 26.6C74.9501 26.5667 75.2167 26.7167 75.4501 27.05C75.6501 27.2833 75.7834 27.7333 75.8501 28.4C75.9167 29.0667 76.0667 31.3 76.3001 35.1C76.4334 37.2 76.5501 38.5167 76.6501 39.05C76.7501 39.65 76.8501 40.5667 76.9501 41.8C77.0167 42.9333 77.1001 43.8833 77.2001 44.65C77.4001 45.9167 77.5334 47.4833 77.6001 49.35C77.7001 51.2167 77.6834 52.2 77.5501 52.3C76.9167 52.6667 76.5001 51.9667 76.3001 50.2C76.2667 49.9667 76.2334 49.7333 76.2001 49.5C76.1334 48.5333 75.9834 47.4667 75.7501 46.3C74.5834 40.6333 73.8834 35.8833 73.6501 32.05C73.6167 30.9167 73.5001 30.35 73.3001 30.35C73.2334 30.35 73.0834 30.4333 72.8501 30.6C72.5501 30.8333 72.3667 30.95 72.3001 30.95C72.2001 30.95 71.9167 31.1 71.4501 31.4C71.1501 31.6333 70.2834 32.1167 68.8501 32.85C68.0834 33.25 67.1334 33.75 66.0001 34.35C64.2334 35.35 63.0667 35.9333 62.5001 36.1C61.9667 36.2667 61.5834 36.15 61.3501 35.75C61.0834 35.3167 61.0834 34.8333 61.3501 34.3C61.6501 33.7333 62.1334 33.2833 62.8001 32.95C63.4001 32.6167 65.8667 31.2333 70.2001 28.8C70.6001 28.5667 71.5834 28.0167 73.1501 27.15Z" fill="black"/>
<path d="M21.6844 7.95L22.3201 8.72193L22.3213 8.72096L21.6844 7.95ZM23.1844 8.35L24.1546 8.10745L24.1524 8.09904L23.1844 8.35ZM23.1844 10.35L24.1691 10.525L24.1708 10.5144L23.1844 10.35ZM23.1844 13.65L23.8602 12.9128L23.8516 12.905L23.8429 12.8974L23.1844 13.65ZM25.3344 14.85L25.7817 13.9556L25.7519 13.9407L25.7212 13.9278L25.3344 14.85ZM26.0344 15.2L25.5872 16.0944L25.6387 16.1201L25.6927 16.1398L26.0344 15.2ZM26.7344 15.45L27.1191 14.5269L27.0853 14.5129L27.0507 14.5013L26.7344 15.45ZM28.1844 16L28.5302 15.0616L28.5173 15.057L28.1844 16ZM29.2844 16.45L29.8391 15.618L29.8391 15.6179L29.2844 16.45ZM30.3344 16.9L29.972 17.832L29.9867 17.8377L30.0016 17.843L30.3344 16.9ZM32.7844 17.95L33.2439 17.0618L33.2265 17.0528L33.2089 17.0445L32.7844 17.95ZM34.9344 18.85L35.1661 17.8772L35.155 17.8746L35.144 17.8722L34.9344 18.85ZM35.9344 19.45L34.9445 19.3086L34.9344 19.3789V19.45H35.9344ZM35.4844 19.8L35.7592 20.7615L35.7801 20.7556L35.8007 20.7487L35.4844 19.8ZM32.9844 19.7L32.8662 20.693L32.879 20.6945L32.8918 20.6957L32.9844 19.7ZM30.2344 19.25L29.7872 20.1444L29.8612 20.1814L29.9403 20.2058L30.2344 19.25ZM28.2344 18.75L28.4649 17.7769L28.4505 17.7735L28.4361 17.7705L28.2344 18.75ZM24.1844 17.6L23.7372 18.4944L23.7979 18.5248L23.8622 18.5466L24.1844 17.6ZM23.6844 17.4L23.3516 18.343L23.3599 18.3459L23.3682 18.3487L23.6844 17.4ZM21.6344 16.85V17.85H21.7055L21.7759 17.8399L21.6344 16.85ZM20.9344 17.6L21.6415 18.3071L21.7468 18.2019L21.8168 18.0706L20.9344 17.6ZM20.7844 17.8L21.6506 18.2997L21.6655 18.2739L21.6789 18.2472L20.7844 17.8ZM17.4344 23.9L16.5503 23.4327L16.5486 23.436L17.4344 23.9ZM15.1344 27.9L14.34 27.2925L14.3344 27.3L15.1344 27.9ZM13.8844 28.6L13.6419 29.5701L13.6867 29.5813L13.7324 29.5884L13.8844 28.6ZM13.5844 28.45L12.7524 29.0047L12.8073 29.0871L12.8773 29.1571L13.5844 28.45ZM13.5344 28L12.548 27.8356V27.8356L13.5344 28ZM13.7844 27.3L14.6789 27.7472H14.6789L13.7844 27.3ZM14.3344 26.3L15.1982 26.8039L15.2006 26.7997L14.3344 26.3ZM16.4344 21.8L15.5153 21.4061L15.5131 21.4113L16.4344 21.8ZM17.9844 18.15L17.0643 17.7583L17.0598 17.7692L17.9844 18.15ZM20.4844 10.8L19.4974 10.6393L19.4958 10.6496L20.4844 10.8ZM39.6844 20.45L39.2372 19.5556L39.2304 19.559L39.2236 19.5625L39.6844 20.45ZM41.4344 19.6L41.8535 20.508L41.8677 20.5014L41.8817 20.4944L41.4344 19.6ZM42.5844 19.15L42.8014 20.1262L42.8517 20.115L42.9007 20.0987L42.5844 19.15ZM43.2344 19.05L43.477 18.0799L43.477 18.0799L43.2344 19.05ZM43.4844 19.35L44.4744 19.2086L44.4705 19.1811L44.465 19.1539L43.4844 19.35ZM41.0344 21.45L40.4609 20.6307L40.4532 20.6363L41.0344 21.45ZM35.9844 24.6L36.3007 25.5487L36.3825 25.5214L36.4585 25.4805L35.9844 24.6ZM34.3344 25.5L33.8414 24.63L33.8383 24.6318L34.3344 25.5ZM30.4844 27.7L29.9746 26.8397L29.9699 26.8425L30.4844 27.7ZM25.9344 30.35L26.4185 31.225L26.4237 31.2221L25.9344 30.35ZM16.1344 36.3L16.6829 37.1362L16.6835 37.1358L16.1344 36.3ZM11.7344 36.95L10.7643 36.7075L10.7471 36.7761L10.7398 36.8464L11.7344 36.95ZM11.8344 36.55L12.8046 36.7925L12.8118 36.7636L12.8173 36.7343L11.8344 36.55ZM14.3844 34L13.7953 33.192L14.3844 34ZM20.4344 30.25L19.9872 29.3556L19.9704 29.364L19.9539 29.373L20.4344 30.25ZM21.4844 29.7L21.0372 28.8056L21.0255 28.8115L21.0138 28.8176L21.4844 29.7ZM22.5844 29.1L22.1905 28.1809L22.1061 28.217L22.0297 28.268L22.5844 29.1ZM24.9344 27.85L25.4164 28.7262L25.4328 28.7172L25.4489 28.7075L24.9344 27.85ZM27.4844 26.45L27.9573 27.3312L27.9675 27.3256L27.4844 26.45ZM31.8844 24.2L31.4493 23.2996L31.4433 23.3026L31.8844 24.2ZM35.7844 22.35L35.3948 21.429L35.3865 21.4325L35.3783 21.4362L35.7844 22.35ZM38.3844 27.15L37.9372 26.2556L37.9186 26.2649L37.9004 26.275L38.3844 27.15ZM39.8844 26.6V27.6H39.9398L39.9949 27.5939L39.8844 26.6ZM40.6844 27.05L39.8652 27.6235L39.8933 27.6636L39.9252 27.7008L40.6844 27.05ZM41.0844 28.4L42.0795 28.3005V28.3005L41.0844 28.4ZM41.5344 35.1L40.5363 35.1613L40.5364 35.1634L41.5344 35.1ZM41.8844 39.05L42.8708 38.8856L42.8692 38.8756L42.8673 38.8657L41.8844 39.05ZM42.1844 41.8L43.1827 41.7413L43.1821 41.7302L43.1812 41.7192L42.1844 41.8ZM42.4344 44.65L41.4428 44.7793L41.4446 44.7927L41.4467 44.806L42.4344 44.65ZM42.8344 49.35L41.8351 49.3857L41.8354 49.3946L41.8359 49.4035L42.8344 49.35ZM42.7844 52.3L43.2855 53.1654L43.3369 53.1357L43.3844 53.1L42.7844 52.3ZM41.5344 50.2L42.5281 50.0875L42.5265 50.073L42.5244 50.0586L41.5344 50.2ZM41.4344 49.5L40.4368 49.5688L40.4393 49.6053L40.4445 49.6414L41.4344 49.5ZM40.9844 46.3L41.965 46.1039L41.9639 46.0983L40.9844 46.3ZM38.8844 32.05L37.8849 32.0794L37.8853 32.0951L37.8863 32.1108L38.8844 32.05ZM38.0844 30.6L37.5032 29.7863L37.4866 29.7981L37.4705 29.8106L38.0844 30.6ZM36.6844 31.4L36.1437 30.5588L36.1059 30.5831L36.0705 30.6106L36.6844 31.4ZM34.0844 32.85L33.6289 31.9597L33.6219 31.9634L34.0844 32.85ZM31.2344 34.35L30.7666 33.4662L30.7541 33.4728L30.7418 33.4797L31.2344 34.35ZM27.7344 36.1L27.4523 35.1406L27.4442 35.143L27.4362 35.1455L27.7344 36.1ZM26.5844 35.75L27.4482 35.2461L27.4423 35.2359L27.4361 35.2259L26.5844 35.75ZM26.5844 34.3L25.7006 33.8321L25.6952 33.8424L25.69 33.8528L26.5844 34.3ZM28.0344 32.95L28.4817 33.8444L28.5011 33.8347L28.5201 33.8242L28.0344 32.95ZM35.4344 28.8L35.9241 29.6719L35.9312 29.6679L35.9383 29.6638L35.4344 28.8ZM21.6844 7.95L22.3213 8.72096C22.3907 8.66368 22.4478 8.62269 22.4931 8.59416C22.5387 8.56539 22.5662 8.55299 22.5766 8.5489C22.5985 8.54026 22.5153 8.57817 22.3768 8.54123C22.3098 8.52338 22.2528 8.49348 22.2094 8.46093C22.1681 8.42991 22.1481 8.4034 22.1439 8.39749C22.1402 8.39221 22.1485 8.40281 22.1636 8.43843C22.1786 8.47369 22.1971 8.52647 22.2164 8.60096L23.1844 8.35L24.1524 8.09904C24.0178 7.57972 23.7005 6.82435 22.8921 6.60876C22.1339 6.40659 21.4656 6.83373 21.0476 7.17904L21.6844 7.95ZM23.1844 8.35L22.2143 8.59253C22.3024 8.94511 22.3186 9.46217 22.198 10.1856L23.1844 10.35L24.1708 10.5144C24.3169 9.63782 24.3331 8.82155 24.1546 8.10746L23.1844 8.35ZM23.1844 10.35L22.1999 10.175C22.066 10.9279 21.9645 11.5284 21.8961 11.9729C21.8333 12.3811 21.7844 12.7404 21.7844 12.95H22.7844H23.7844C23.7844 12.958 23.7856 12.9134 23.8022 12.7766C23.817 12.6539 23.8403 12.4885 23.8728 12.2771C23.9377 11.855 24.0362 11.2721 24.169 10.525L23.1844 10.35ZM22.7844 12.95H21.7844C21.7844 13.5939 22.1553 14.0783 22.5259 14.4026L23.1844 13.65L23.8429 12.8974C23.8069 12.8659 23.7833 12.8413 23.7687 12.8242C23.7541 12.8072 23.7506 12.8002 23.7527 12.8039C23.755 12.8079 23.7633 12.8236 23.771 12.8503C23.7788 12.8777 23.7844 12.9118 23.7844 12.95H22.7844ZM23.1844 13.65L22.5087 14.3872C23.0435 14.8773 23.8966 15.3314 24.9477 15.7722L25.3344 14.85L25.7212 13.9278C24.7056 13.5019 24.1254 13.156 23.8602 12.9128L23.1844 13.65ZM25.3344 14.85L24.8872 15.7444C25.0206 15.8111 25.2539 15.9278 25.5872 16.0944L26.0344 15.2L26.4817 14.3056C26.1483 14.1389 25.915 14.0222 25.7817 13.9556L25.3344 14.85ZM26.0344 15.2L25.6927 16.1398C26.0553 16.2716 26.3027 16.3602 26.4182 16.3987L26.7344 15.45L27.0507 14.5013C26.9662 14.4732 26.7469 14.395 26.3762 14.2602L26.0344 15.2ZM26.7344 15.45L26.3498 16.3731C26.772 16.549 27.2736 16.739 27.8516 16.943L28.1844 16L28.5173 15.057C27.9619 14.861 27.4969 14.6844 27.1191 14.5269L26.7344 15.45ZM28.1844 16L27.8387 16.9383C28.1509 17.0533 28.3883 17.1445 28.5558 17.213C28.6399 17.2474 28.6993 17.2733 28.7383 17.2914C28.7902 17.3155 28.7727 17.3107 28.7297 17.2821L29.2844 16.45L29.8391 15.6179C29.69 15.5185 29.474 15.4278 29.3131 15.362C29.1139 15.2805 28.8514 15.18 28.5301 15.0617L28.1844 16ZM29.2844 16.45L28.7297 17.282C28.8699 17.3755 29.0708 17.4643 29.228 17.5316C29.4181 17.6131 29.6675 17.7136 29.972 17.832L30.3344 16.9L30.6969 15.968C30.4013 15.8531 30.1758 15.7619 30.0159 15.6934C29.9356 15.659 29.8783 15.633 29.8401 15.6146C29.7912 15.5911 29.8031 15.5939 29.8391 15.618L29.2844 16.45ZM30.3344 16.9L30.0016 17.843C30.5202 18.026 31.3007 18.3589 32.36 18.8555L32.7844 17.95L33.2089 17.0445C32.1349 16.5411 31.282 16.174 30.6673 15.957L30.3344 16.9ZM32.7844 17.95L32.325 18.8382C33.2961 19.3405 34.1161 19.6973 34.7249 19.8278L34.9344 18.85L35.144 17.8722C34.8195 17.8027 34.2061 17.5595 33.2439 17.0618L32.7844 17.95ZM34.9344 18.85L34.7028 19.8228C34.8531 19.8586 34.9693 19.8928 35.0563 19.9237C35.1461 19.9555 35.1866 19.9775 35.1949 19.9825C35.2094 19.9912 35.1409 19.9551 35.0685 19.8505C35.0292 19.7936 34.9876 19.7149 34.9618 19.615C34.9354 19.5133 34.9302 19.4085 34.9445 19.3086L35.9344 19.45L36.9244 19.5914C37.0299 18.853 36.4884 18.4262 36.2239 18.2675C35.9241 18.0876 35.5462 17.9677 35.1661 17.8772L34.9344 18.85ZM35.9344 19.45H34.9344C34.9344 19.0924 35.1483 18.8946 35.208 18.8481C35.2624 18.8059 35.2722 18.8166 35.1682 18.8513L35.4844 19.8L35.8007 20.7487C35.9966 20.6834 36.2315 20.5858 36.4359 20.4268C36.6456 20.2637 36.9344 19.941 36.9344 19.45H35.9344ZM35.4844 19.8L35.2097 18.8385C35.2795 18.8185 35.2907 18.8278 35.1657 18.8317C35.0654 18.8349 34.9206 18.8336 34.7244 18.8258C34.3334 18.8102 33.7868 18.7703 33.0771 18.7043L32.9844 19.7L32.8918 20.6957C33.6154 20.763 34.2021 20.8065 34.6445 20.8242C34.8649 20.833 35.0618 20.836 35.2282 20.8308C35.3698 20.8263 35.5727 20.8148 35.7592 20.7615L35.4844 19.8ZM32.9844 19.7L33.1026 18.707C31.685 18.5382 30.8604 18.3963 30.5285 18.2942L30.2344 19.25L29.9403 20.2058C30.4751 20.3703 31.4839 20.5284 32.8662 20.693L32.9844 19.7ZM30.2344 19.25L30.6817 18.3556C30.5867 18.3081 30.4882 18.2794 30.4754 18.2755C30.4335 18.2626 30.3854 18.249 30.3351 18.2352C30.2332 18.2074 30.096 18.1721 29.927 18.1299C29.5875 18.045 29.0994 17.9272 28.4649 17.7769L28.2344 18.75L28.004 19.7231C28.6362 19.8728 29.1147 19.9883 29.4419 20.0701C29.6062 20.1112 29.7274 20.1425 29.8088 20.1648C29.8502 20.176 29.875 20.1833 29.8872 20.187C29.9286 20.1997 29.8655 20.1836 29.7872 20.1444L30.2344 19.25ZM28.2344 18.75L28.4361 17.7705C27.3568 17.5483 26.0491 17.1784 24.5067 16.6533L24.1844 17.6L23.8622 18.5466C25.4531 19.0882 26.8454 19.485 28.0328 19.7295L28.2344 18.75ZM24.1844 17.6L24.6316 16.7056C24.4427 16.6111 24.2288 16.5274 24.0007 16.4513L23.6844 17.4L23.3682 18.3487C23.5401 18.406 23.6595 18.4556 23.7372 18.4944L24.1844 17.6ZM23.6844 17.4L24.0173 16.457C23.4405 16.2535 22.9588 16.098 22.5811 15.9967C22.3928 15.9461 22.215 15.9049 22.0553 15.8787C21.9179 15.8563 21.7078 15.8294 21.493 15.86L21.6344 16.85L21.7759 17.8399C21.6778 17.854 21.6405 17.8375 21.7323 17.8525C21.8018 17.8639 21.9094 17.8872 22.0628 17.9283C22.3684 18.0103 22.795 18.1465 23.3516 18.343L23.6844 17.4ZM21.6344 16.85V15.85C21.1143 15.85 20.7573 16.1634 20.5784 16.3552C20.3762 16.5718 20.2033 16.8458 20.0521 17.1294L20.9344 17.6L21.8168 18.0706C21.8718 17.9675 21.9198 17.8873 21.9602 17.8266C22.0015 17.7647 22.0288 17.7324 22.0405 17.7198C22.0542 17.7051 22.0345 17.7304 21.9779 17.7631C21.9178 17.7978 21.7987 17.85 21.6344 17.85V16.85ZM20.9344 17.6L20.2273 16.8929C20.1038 17.0164 19.9822 17.1684 19.89 17.3528L20.7844 17.8L21.6789 18.2472C21.6533 18.2983 21.6317 18.317 21.6415 18.3071L20.9344 17.6ZM20.7844 17.8L19.9183 17.3003C18.9105 19.047 17.7877 21.0917 16.5503 23.4327L17.4344 23.9L18.3185 24.3673C19.5478 22.0417 20.6584 20.0196 21.6506 18.2997L20.7844 17.8ZM17.4344 23.9L16.5486 23.436C15.4389 25.5546 14.7117 26.8066 14.3401 27.2925L15.1344 27.9L15.9288 28.5075C16.4239 27.86 17.23 26.4454 18.3203 24.364L17.4344 23.9ZM15.1344 27.9L14.3344 27.3C14.1872 27.4963 14.0819 27.5753 14.0333 27.6025C14.0121 27.6144 14.0062 27.6139 14.0139 27.6124C14.0226 27.6107 14.0319 27.6109 14.0365 27.6116L13.8844 28.6L13.7324 29.5884C14.6998 29.7372 15.4394 29.16 15.9344 28.5L15.1344 27.9ZM13.8844 28.6L14.127 27.6299C14.1156 27.627 14.1285 27.629 14.1567 27.6431C14.1854 27.6575 14.2363 27.6876 14.2915 27.7429L13.5844 28.45L12.8773 29.1571C13.1179 29.3976 13.4083 29.5117 13.6419 29.5701L13.8844 28.6ZM13.5844 28.45L14.4165 27.8953C14.4916 28.008 14.5109 28.1079 14.5158 28.1521C14.5205 28.1938 14.5145 28.2026 14.5208 28.1644L13.5344 28L12.548 27.8356C12.4997 28.1258 12.475 28.5886 12.7524 29.0047L13.5844 28.45ZM13.5344 28L14.5208 28.1644C14.532 28.0972 14.5712 27.9625 14.6789 27.7472L13.7844 27.3L12.89 26.8528C12.731 27.1708 12.6035 27.5028 12.548 27.8356L13.5344 28ZM13.7844 27.3L14.6789 27.7472C14.7989 27.5072 14.9705 27.1942 15.1982 26.8039L14.3344 26.3L13.4707 25.7961C13.2317 26.2058 13.0367 26.5595 12.89 26.8528L13.7844 27.3ZM14.3344 26.3L15.2006 26.7997C15.7345 25.8744 16.455 24.3238 17.3558 22.1887L16.4344 21.8L15.5131 21.4113C14.6138 23.5428 13.9344 24.9923 13.4683 25.8003L14.3344 26.3ZM16.4344 21.8L17.3536 22.1939C18.1529 20.3288 18.6725 19.1053 18.9091 18.5308L17.9844 18.15L17.0598 17.7692C16.8297 18.3281 16.316 19.5378 15.5153 21.4061L16.4344 21.8ZM17.9844 18.15L18.9045 18.5417C20.3384 15.1738 21.2189 12.6209 21.4731 10.9504L20.4844 10.8L19.4958 10.6496C19.2834 12.0458 18.4971 14.3929 17.0644 17.7583L17.9844 18.15ZM20.4844 10.8L21.4714 10.9607C21.6985 9.56605 22.0539 8.94122 22.3201 8.72193L21.6844 7.95L21.0487 7.17807C20.1817 7.8921 19.7371 9.16728 19.4974 10.6393L20.4844 10.8ZM39.6844 20.45L40.1317 21.3444C40.8612 20.9796 41.434 20.7016 41.8535 20.508L41.4344 19.6L41.0154 18.692C40.5683 18.8984 39.9743 19.187 39.2372 19.5556L39.6844 20.45ZM41.4344 19.6L41.8817 20.4944C42.3184 20.2761 42.6175 20.167 42.8014 20.1262L42.5844 19.15L42.3675 18.1738C41.9514 18.2663 41.4838 18.4573 40.9872 18.7056L41.4344 19.6ZM42.5844 19.15L42.9007 20.0987C42.9577 20.0797 43.0051 20.0657 43.0437 20.0558C43.0827 20.0457 43.1089 20.0407 43.124 20.0384C43.1398 20.0359 43.1368 20.0375 43.1188 20.0375C43.1019 20.0375 43.056 20.0362 42.9919 20.0201L43.2344 19.05L43.477 18.0799C43.2274 18.0175 42.9905 18.0354 42.8199 18.0616C42.6373 18.0897 42.4505 18.1406 42.2682 18.2013L42.5844 19.15ZM43.2344 19.05L42.9919 20.0201C42.865 19.9884 42.7307 19.9126 42.6287 19.7902C42.536 19.679 42.5102 19.5778 42.5039 19.5461L43.4844 19.35L44.465 19.1539C44.4254 18.9555 44.3412 18.721 44.1652 18.5098C43.9798 18.2874 43.7372 18.1449 43.477 18.0799L43.2344 19.05ZM43.4844 19.35L42.4945 19.4914C42.4557 19.22 42.552 19.0328 42.5669 19.0037C42.5921 18.9546 42.608 18.9411 42.5841 18.9696C42.5382 19.0243 42.4351 19.1288 42.2461 19.2907C41.8755 19.6084 41.2866 20.0528 40.461 20.6308L41.0344 21.45L41.6079 22.2692C42.4489 21.6805 43.1017 21.1916 43.5477 20.8093C43.7671 20.6212 43.9661 20.434 44.116 20.2554C44.19 20.1672 44.2773 20.0516 44.3472 19.915C44.4069 19.7984 44.5215 19.5384 44.4744 19.2086L43.4844 19.35ZM41.0344 21.45L40.4532 20.6363C38.8535 21.7789 37.2059 22.8065 35.5103 23.7195L35.9844 24.6L36.4585 25.4805C38.2297 24.5268 39.9487 23.4544 41.6157 22.2637L41.0344 21.45ZM35.9844 24.6L35.6682 23.6513C35.5565 23.6886 35.4313 23.7531 35.3687 23.7852C35.2765 23.8325 35.1586 23.8955 35.0181 23.9721C34.736 24.126 34.3429 24.3458 33.8414 24.63L34.3344 25.5L34.8274 26.37C35.3259 26.0876 35.7079 25.874 35.9758 25.7279C36.1103 25.6545 36.2112 25.6008 36.2814 25.5648C36.3813 25.5136 36.3624 25.5281 36.3007 25.5487L35.9844 24.6ZM34.3344 25.5L33.8383 24.6318C33.4898 24.8309 33.23 24.977 33.0556 25.0721C32.9671 25.1204 32.9086 25.1511 32.8747 25.1681C32.8562 25.1773 32.8567 25.1766 32.8686 25.1715C32.8736 25.1694 32.8959 25.1598 32.9284 25.149C32.9447 25.1435 32.9747 25.134 33.0137 25.125C33.0438 25.1181 33.1263 25.1 33.2344 25.1V26.1V27.1C33.4149 27.1 33.5557 27.048 33.5608 27.0463C33.6026 27.0324 33.6369 27.0181 33.6565 27.0098C33.6976 26.9921 33.7376 26.9727 33.7691 26.9569C33.8353 26.9239 33.9185 26.8796 34.0133 26.8279C34.2055 26.723 34.4791 26.5691 34.8306 26.3682L34.3344 25.5ZM33.2344 26.1V25.1C33.0976 25.1 32.9932 25.129 32.9684 25.1358C32.9268 25.1472 32.8941 25.159 32.8764 25.1657C32.8403 25.1793 32.8113 25.1925 32.7971 25.1991C32.766 25.2135 32.7368 25.2285 32.716 25.2395C32.6714 25.2628 32.616 25.2934 32.5543 25.328C32.4286 25.3985 32.2493 25.5017 32.019 25.6357C31.5571 25.9044 30.8752 26.306 29.9746 26.8397L30.4844 27.7L30.9942 28.5603C31.8937 28.0273 32.5701 27.6289 33.0248 27.3643C33.2529 27.2317 33.4215 27.1348 33.5333 27.072C33.5904 27.04 33.6261 27.0205 33.6451 27.0105C33.6561 27.0048 33.6517 27.0074 33.6386 27.0134C33.6334 27.0158 33.6116 27.0259 33.5811 27.0374C33.5661 27.0431 33.5358 27.0541 33.496 27.065C33.4732 27.0712 33.3702 27.1 33.2344 27.1V26.1ZM30.4844 27.7L29.9699 26.8425C28.3097 27.8386 26.8016 28.7169 25.4452 29.4779L25.9344 30.35L26.4237 31.2221C27.8006 30.4497 29.3258 29.5614 30.9989 28.5575L30.4844 27.7ZM25.9344 30.35L25.4504 29.475C22.2922 31.2221 19.0038 33.2188 15.5854 35.4642L16.1344 36.3L16.6835 37.1358C20.0651 34.9145 23.31 32.9446 26.4185 31.225L25.9344 30.35ZM16.1344 36.3L15.586 35.4638C14.8313 35.9589 14.1954 36.3303 13.6737 36.5873C13.1394 36.8506 12.7792 36.9663 12.5633 36.9982C12.3325 37.0323 12.4782 36.9477 12.6444 37.1246C12.7834 37.2724 12.6974 37.3574 12.7291 37.0536L11.7344 36.95L10.7398 36.8464C10.6881 37.3426 10.723 38.0005 11.187 38.4942C11.6782 39.0169 12.3531 39.051 12.8556 38.9768C13.373 38.9003 13.9503 38.6807 14.5577 38.3814C15.1776 38.076 15.8876 37.6578 16.6829 37.1362L16.1344 36.3ZM11.7344 36.95L12.7046 37.1925C12.7379 37.0592 12.7712 36.9259 12.8046 36.7925L11.8344 36.55L10.8643 36.3075C10.831 36.4408 10.7976 36.5741 10.7643 36.7075L11.7344 36.95ZM11.8344 36.55L12.8173 36.7343C12.8065 36.792 12.7958 36.7711 12.8744 36.6567C12.9472 36.5508 13.068 36.4057 13.254 36.2196C13.6266 35.847 14.1924 35.3776 14.9736 34.808L14.3844 34L13.7953 33.192C12.9765 33.789 12.3173 34.328 11.8398 34.8054C11.6009 35.0443 11.3905 35.2846 11.2257 35.5245C11.0668 35.756 10.9124 36.0413 10.8516 36.3657L11.8344 36.55ZM14.3844 34L14.9736 34.808C16.5283 33.6744 18.5056 32.4472 20.915 31.127L20.4344 30.25L19.9539 29.373C17.4966 30.7195 15.4406 31.9923 13.7953 33.192L14.3844 34ZM20.4344 30.25L20.8816 31.1444C21.0948 31.0378 21.4555 30.8488 21.955 30.5824L21.4844 29.7L21.0138 28.8176C20.5134 29.0845 20.174 29.2622 19.9872 29.3556L20.4344 30.25ZM21.4844 29.7L21.9316 30.5944C22.4637 30.3284 22.8815 30.1038 23.1391 29.932L22.5844 29.1L22.0297 28.268C21.8874 28.3628 21.5718 28.5383 21.0372 28.8056L21.4844 29.7ZM22.5844 29.1L22.9784 30.0191C23.2693 29.8945 24.1099 29.4448 25.4164 28.7262L24.9344 27.85L24.4525 26.9738C23.0923 27.7219 22.3662 28.1055 22.1905 28.1809L22.5844 29.1ZM24.9344 27.85L25.4489 28.7075C25.7571 28.5226 26.5827 28.0687 27.9573 27.3312L27.4844 26.45L27.0116 25.5688C25.6528 26.298 24.7785 26.7774 24.4199 26.9925L24.9344 27.85ZM27.4844 26.45L27.9675 27.3256C28.9128 26.8041 30.3622 26.0625 32.3256 25.0974L31.8844 24.2L31.4433 23.3026C29.4734 24.2708 27.9895 25.0293 27.0014 25.5744L27.4844 26.45ZM31.8844 24.2L32.3196 25.1003C34.3233 24.1319 35.608 23.5227 36.1906 23.2638L35.7844 22.35L35.3783 21.4362C34.7608 21.7106 33.4456 22.3348 31.4493 23.2997L31.8844 24.2ZM35.7844 22.35L36.1741 23.271C37.0789 22.8882 38.4078 22.2396 40.1453 21.3375L39.6844 20.45L39.2236 19.5625C37.4944 20.4604 36.2234 21.0785 35.3948 21.429L35.7844 22.35ZM38.3844 27.15L38.8317 28.0444C39.1806 27.8699 39.4522 27.7503 39.6537 27.6764C39.8809 27.5931 39.9351 27.6 39.8844 27.6V26.6V25.6C39.5671 25.6 39.238 25.6986 38.9652 25.7986C38.6667 25.9081 38.3216 26.0634 37.9372 26.2556L38.3844 27.15ZM39.8844 26.6L39.9949 27.5939C39.9703 27.5966 39.9377 27.5963 39.9015 27.5888C39.8655 27.5814 39.8374 27.5693 39.8192 27.5591C39.7862 27.5405 39.8074 27.5409 39.8652 27.6235L40.6844 27.05L41.5037 26.4765C41.1442 25.9631 40.5624 25.5185 39.774 25.6061L39.8844 26.6ZM40.6844 27.05L39.9252 27.7008C39.8983 27.6694 39.9299 27.6923 39.9756 27.8466C40.0187 27.9919 40.0599 28.2046 40.0894 28.4995L41.0844 28.4L42.0795 28.3005C42.0423 27.9288 41.9835 27.5831 41.8932 27.2784C41.8056 26.9827 41.6706 26.664 41.4437 26.3992L40.6844 27.05ZM41.0844 28.4L40.0894 28.4995C40.1536 29.1419 40.3023 31.3499 40.5363 35.1613L41.5344 35.1L42.5326 35.0387C42.2999 31.2501 42.1486 28.9915 42.0795 28.3005L41.0844 28.4ZM41.5344 35.1L40.5364 35.1634C40.6684 37.2418 40.7878 38.6277 40.9016 39.2343L41.8844 39.05L42.8673 38.8657C42.7811 38.4057 42.6671 37.1582 42.5324 35.0366L41.5344 35.1ZM41.8844 39.05L40.898 39.2144C40.9908 39.771 41.0882 40.6531 41.1877 41.8808L42.1844 41.8L43.1812 41.7192C43.0807 40.4802 42.9781 39.529 42.8708 38.8856L41.8844 39.05ZM42.1844 41.8L41.1862 41.8587C41.2536 43.0058 41.3387 43.9812 41.4428 44.7793L42.4344 44.65L43.426 44.5207C43.3302 43.7855 43.2486 42.8608 43.1827 41.7413L42.1844 41.8ZM42.4344 44.65L41.4467 44.806C41.6383 46.0193 41.7693 47.5429 41.8351 49.3857L42.8344 49.35L43.8338 49.3143C43.7663 47.4238 43.6306 45.814 43.4222 44.494L42.4344 44.65ZM42.8344 49.35L41.8359 49.4035C41.8855 50.3302 41.9048 51.0147 41.8971 51.4706C41.8932 51.7025 41.8825 51.8462 41.872 51.9222C41.8664 51.9627 41.8651 51.9516 41.8778 51.9123C41.8845 51.8918 41.9018 51.8421 41.9372 51.7794C41.9696 51.7219 42.044 51.6053 42.1844 51.5L42.7844 52.3L43.3844 53.1C43.6651 52.8895 43.7573 52.6002 43.7801 52.5299C43.8189 52.4103 43.84 52.2914 43.8531 52.1965C43.8801 52.0017 43.8924 51.7642 43.8968 51.5044C43.9057 50.977 43.8834 50.2365 43.833 49.2965L42.8344 49.35ZM42.7844 52.3L42.2834 51.4346C42.2846 51.4339 42.4352 51.3529 42.6526 51.4219C42.8447 51.4829 42.8937 51.6015 42.8562 51.5385C42.8217 51.4805 42.7603 51.3429 42.6952 51.0825C42.6321 50.83 42.5749 50.5012 42.5281 50.0875L41.5344 50.2L40.5408 50.3125C40.6422 51.2087 40.8114 52.0134 41.1376 52.5615C41.3085 52.8485 41.5929 53.1838 42.0475 53.3281C42.5274 53.4805 42.9676 53.3495 43.2855 53.1654L42.7844 52.3ZM41.5344 50.2L42.5244 50.0586C42.4911 49.8252 42.4577 49.5919 42.4244 49.3586L41.4344 49.5L40.4445 49.6414C40.4778 49.8748 40.5112 50.1081 40.5445 50.3414L41.5344 50.2ZM41.4344 49.5L42.4321 49.4312C42.3619 48.4134 42.2049 47.3035 41.965 46.1039L40.9844 46.3L40.0039 46.4961C40.2306 47.6298 40.3737 48.6532 40.4368 49.5688L41.4344 49.5ZM40.9844 46.3L41.9639 46.0983C40.8025 40.4574 40.112 35.758 39.8826 31.9892L38.8844 32.05L37.8863 32.1108C38.1236 36.0087 38.833 40.8093 40.005 46.5017L40.9844 46.3ZM38.8844 32.05L39.884 32.0206C39.8669 31.4399 39.8278 30.9444 39.7514 30.5733C39.715 30.3968 39.6558 30.1726 39.5418 29.9684C39.4418 29.7896 39.1348 29.35 38.5344 29.35V30.35V31.35C38.034 31.35 37.8166 30.9812 37.7959 30.9441C37.761 30.8816 37.7705 30.8698 37.7925 30.9767C37.8328 31.1723 37.8686 31.5268 37.8849 32.0794L38.8844 32.05ZM38.5344 30.35V29.35C38.3362 29.35 38.1794 29.4055 38.1098 29.4323C38.024 29.4653 37.9473 29.5045 37.8863 29.5383C37.7638 29.6064 37.6332 29.6934 37.5032 29.7863L38.0844 30.6L38.6657 31.4137C38.7153 31.3783 38.7565 31.3501 38.7901 31.3282C38.8243 31.3059 38.8462 31.293 38.8576 31.2867C38.8716 31.2789 38.8595 31.2868 38.8278 31.299C38.811 31.3054 38.7798 31.3166 38.7372 31.3267C38.6967 31.3363 38.6258 31.35 38.5344 31.35V30.35ZM38.0844 30.6L37.4705 29.8106C37.4022 29.8638 37.3439 29.9077 37.2948 29.9432C37.2451 29.9792 37.2091 30.0035 37.1851 30.0188C37.1733 30.0263 37.1669 30.0301 37.1651 30.0311C37.1627 30.0324 37.1694 30.0285 37.1834 30.0219C37.1958 30.0162 37.2275 30.0019 37.2737 29.9879C37.2977 29.9806 37.3309 29.9717 37.3716 29.9644C37.4117 29.9572 37.4674 29.95 37.5344 29.95V30.95V31.95C37.7842 31.95 37.9775 31.8584 38.0292 31.8343C38.1154 31.7941 38.1946 31.747 38.2588 31.7062C38.3895 31.623 38.5389 31.5134 38.6984 31.3894L38.0844 30.6ZM37.5344 30.95V29.95C37.3116 29.95 37.1281 30.0205 37.0607 30.0469C36.9636 30.0849 36.8672 30.1321 36.779 30.1787C36.601 30.273 36.3863 30.4028 36.1437 30.5588L36.6844 31.4L37.2252 32.2412C37.4492 32.0972 37.6096 32.002 37.7148 31.9463C37.7684 31.9179 37.7907 31.9089 37.7895 31.9094C37.7884 31.9098 37.7696 31.9172 37.7374 31.9255C37.7108 31.9324 37.6368 31.95 37.5344 31.95V30.95ZM36.6844 31.4L36.0705 30.6106C35.9885 30.6744 35.7599 30.8201 35.3224 31.0641C34.9038 31.2976 34.3406 31.5956 33.629 31.9598L34.0844 32.85L34.5399 33.7402C35.2616 33.371 35.8484 33.0608 36.2965 32.8109C36.7256 32.5716 37.0804 32.3589 37.2984 32.1894L36.6844 31.4ZM34.0844 32.85L33.6219 31.9634C32.8528 32.3647 31.9009 32.8657 30.7666 33.4662L31.2344 34.35L31.7023 35.2338C32.8346 34.6343 33.7827 34.1353 34.547 33.7366L34.0844 32.85ZM31.2344 34.35L30.7418 33.4797C28.9478 34.4952 27.8867 35.0129 27.4523 35.1406L27.7344 36.1L28.0166 37.0594C28.7155 36.8538 29.9877 36.2048 31.727 35.2203L31.2344 34.35ZM27.7344 36.1L27.4362 35.1455C27.3655 35.1676 27.3243 35.1725 27.3081 35.1734C27.2935 35.1742 27.3071 35.1714 27.3381 35.1808C27.3533 35.1854 27.3699 35.1922 27.3868 35.2014C27.4038 35.2105 27.4182 35.2206 27.4298 35.2304C27.4534 35.2502 27.4571 35.2613 27.4482 35.2461L26.5844 35.75L25.7207 36.2539C25.9432 36.6353 26.2856 36.9511 26.7558 37.0942C27.2018 37.2299 27.6474 37.1749 28.0327 37.0545L27.7344 36.1ZM26.5844 35.75L27.4361 35.2259C27.3845 35.1421 27.3357 35.0336 27.4789 34.7472L26.5844 34.3L25.69 33.8528C25.2999 34.6331 25.251 35.4913 25.7328 36.2741L26.5844 35.75ZM26.5844 34.3L27.4682 34.7679C27.6555 34.4141 27.9701 34.1002 28.4817 33.8444L28.0344 32.95L27.5872 32.0556C26.7654 32.4665 26.1133 33.0526 25.7006 33.8321L26.5844 34.3ZM28.0344 32.95L28.5201 33.8242C29.1227 33.4894 31.5922 32.1045 35.9241 29.6719L35.4344 28.8L34.9448 27.9281C30.61 30.3622 28.1462 31.7439 27.5488 32.0758L28.0344 32.95ZM35.4344 28.8L35.9383 29.6638C36.3263 29.4375 37.2983 28.8936 38.8685 28.025L38.3844 27.15L37.9004 26.275C36.3372 27.1397 35.3426 27.6959 34.9306 27.9362L35.4344 28.8ZM56.4501 7.95L57.0858 8.72193L57.0869 8.72096L56.4501 7.95ZM57.9501 8.35L58.9202 8.10745L58.9181 8.09904L57.9501 8.35ZM57.9501 10.35L58.9347 10.525L58.9365 10.5144L57.9501 10.35ZM57.9501 13.65L58.6258 12.9128L58.6173 12.905L58.6086 12.8974L57.9501 13.65ZM60.1001 14.85L60.5473 13.9556L60.5175 13.9407L60.4868 13.9278L60.1001 14.85ZM60.8001 15.2L60.3528 16.0944L60.4043 16.1201L60.4583 16.1398L60.8001 15.2ZM61.5001 15.45L61.8847 14.5269L61.8509 14.5129L61.8163 14.5013L61.5001 15.45ZM62.9501 16L63.2958 15.0616L63.2829 15.057L62.9501 16ZM64.0501 16.45L64.6048 15.618L64.6048 15.6179L64.0501 16.45ZM65.1001 16.9L64.7376 17.832L64.7523 17.8377L64.7672 17.843L65.1001 16.9ZM67.5501 17.95L68.0095 17.0618L67.9922 17.0528L67.9745 17.0445L67.5501 17.95ZM69.7001 18.85L69.9317 17.8772L69.9207 17.8746L69.9096 17.8722L69.7001 18.85ZM70.7001 19.45L69.7101 19.3086L69.7001 19.3789V19.45H70.7001ZM70.2501 19.8L70.5248 20.7615L70.5457 20.7556L70.5663 20.7487L70.2501 19.8ZM67.7501 19.7L67.6318 20.693L67.6446 20.6945L67.6574 20.6957L67.7501 19.7ZM65.0001 19.25L64.5528 20.1444L64.6269 20.1814L64.706 20.2058L65.0001 19.25ZM63.0001 18.75L63.2305 17.7769L63.2162 17.7735L63.2017 17.7705L63.0001 18.75ZM58.9501 17.6L58.5029 18.4944L58.5636 18.5248L58.6278 18.5466L58.9501 17.6ZM58.4501 17.4L58.1172 18.343L58.1255 18.3459L58.1338 18.3487L58.4501 17.4ZM56.4001 16.85V17.85H56.4711L56.5415 17.8399L56.4001 16.85ZM55.7001 17.6L56.4072 18.3071L56.5124 18.2019L56.5824 18.0706L55.7001 17.6ZM55.5501 17.8L56.4162 18.2997L56.4311 18.2739L56.4445 18.2472L55.5501 17.8ZM52.2001 23.9L51.316 23.4327L51.3142 23.436L52.2001 23.9ZM49.9001 27.9L49.1057 27.2925L49.1001 27.3L49.9001 27.9ZM48.6501 28.6L48.4075 29.5701L48.4523 29.5813L48.498 29.5884L48.6501 28.6ZM48.3501 28.45L47.518 29.0047L47.5729 29.0871L47.643 29.1571L48.3501 28.45ZM48.3001 28L47.3137 27.8356V27.8356L48.3001 28ZM48.5501 27.3L49.4445 27.7472L48.5501 27.3ZM49.1001 26.3L49.9638 26.8039L49.9662 26.7997L49.1001 26.3ZM51.2001 21.8L50.2809 21.4061L50.2787 21.4113L51.2001 21.8ZM52.7501 18.15L51.8299 17.7583L51.8254 17.7692L52.7501 18.15ZM55.2501 10.8L54.263 10.6393L54.2614 10.6496L55.2501 10.8ZM74.4501 20.45L74.0028 19.5556L73.996 19.559L73.9892 19.5625L74.4501 20.45ZM76.2001 19.6L76.6191 20.508L76.6333 20.5014L76.6473 20.4944L76.2001 19.6ZM77.3501 19.15L77.567 20.1262L77.6173 20.115L77.6663 20.0987L77.3501 19.15ZM78.0001 19.05L78.2426 18.0799L78.2426 18.0799L78.0001 19.05ZM78.2501 19.35L79.24 19.2086L79.2361 19.1811L79.2306 19.1539L78.2501 19.35ZM75.8001 21.45L75.2266 20.6307L75.2188 20.6363L75.8001 21.45ZM70.7501 24.6L71.0663 25.5487L71.1482 25.5214L71.2242 25.4805L70.7501 24.6ZM69.1001 25.5L68.607 24.63L68.6039 24.6318L69.1001 25.5ZM65.2501 27.7L64.7403 26.8397L64.7356 26.8425L65.2501 27.7ZM60.7001 30.35L61.1841 31.225L61.1893 31.2221L60.7001 30.35ZM50.9001 36.3L51.4485 37.1362L51.4491 37.1358L50.9001 36.3ZM46.5001 36.95L45.5299 36.7075L45.5128 36.7761L45.5054 36.8464L46.5001 36.95ZM46.6001 36.55L47.5702 36.7925L47.5774 36.7636L47.5829 36.7343L46.6001 36.55ZM49.1501 34L48.5609 33.192L49.1501 34ZM55.2001 30.25L54.7528 29.3556L54.736 29.364L54.7195 29.373L55.2001 30.25ZM56.2501 29.7L55.8028 28.8056L55.7911 28.8115L55.7795 28.8176L56.2501 29.7ZM57.3501 29.1L56.9561 28.1809L56.8718 28.217L56.7954 28.268L57.3501 29.1ZM59.7001 27.85L60.182 28.7262L60.1984 28.7172L60.2146 28.7075L59.7001 27.85ZM62.2501 26.45L62.7229 27.3312L62.7331 27.3256L62.2501 26.45ZM66.6501 24.2L66.2149 23.2996L66.2089 23.3026L66.6501 24.2ZM70.5501 22.35L70.1604 21.429L70.1521 21.4325L70.1439 21.4362L70.5501 22.35ZM73.1501 27.15L72.7029 26.2556L72.6842 26.2649L72.666 26.275L73.1501 27.15ZM74.6501 26.6V27.6H74.7055L74.7605 27.5939L74.6501 26.6ZM75.4501 27.05L74.6308 27.6235L74.6589 27.6636L74.6908 27.7008L75.4501 27.05ZM75.8501 28.4L76.8451 28.3005V28.3005L75.8501 28.4ZM76.3001 35.1L75.3019 35.1613L75.3021 35.1634L76.3001 35.1ZM76.6501 39.05L77.6365 38.8856L77.6348 38.8756L77.6329 38.8657L76.6501 39.05ZM76.9501 41.8L77.9483 41.7413L77.9477 41.7302L77.9468 41.7192L76.9501 41.8ZM77.2001 44.65L76.2085 44.7793L76.2102 44.7927L76.2123 44.806L77.2001 44.65ZM77.6001 49.35L76.6007 49.3857L76.601 49.3946L76.6015 49.4035L77.6001 49.35ZM77.5501 52.3L78.0511 53.1654L78.1025 53.1357L78.1501 53.1L77.5501 52.3ZM76.3001 50.2L77.2937 50.0875L77.2921 50.073L77.29 50.0586L76.3001 50.2ZM76.2001 49.5L75.2024 49.5688L75.2049 49.6053L75.2101 49.6414L76.2001 49.5ZM75.7501 46.3L76.7307 46.1039L76.7295 46.0983L75.7501 46.3ZM73.6501 32.05L72.6505 32.0794L72.651 32.0951L72.6519 32.1108L73.6501 32.05ZM72.8501 30.6L72.2688 29.7863L72.2522 29.7981L72.2361 29.8106L72.8501 30.6ZM71.4501 31.4L70.9093 30.5588L70.8716 30.5831L70.8361 30.6106L71.4501 31.4ZM68.8501 32.85L68.3946 31.9597L68.3875 31.9634L68.8501 32.85ZM66.0001 34.35L65.5322 33.4662L65.5197 33.4728L65.5075 33.4797L66.0001 34.35ZM62.5001 36.1L62.2179 35.1406L62.2098 35.143L62.2018 35.1455L62.5001 36.1ZM61.3501 35.75L62.2138 35.2461L62.2079 35.2359L62.2017 35.2259L61.3501 35.75ZM61.3501 34.3L60.4663 33.8321L60.4608 33.8424L60.4556 33.8528L61.3501 34.3ZM62.8001 32.95L63.2473 33.8444L63.2667 33.8347L63.2857 33.8242L62.8001 32.95ZM70.2001 28.8L70.6897 29.6719L70.6968 29.6679L70.7039 29.6638L70.2001 28.8ZM56.4501 7.95L57.0869 8.72096C57.1563 8.66368 57.2135 8.62269 57.2587 8.59416C57.3043 8.56539 57.3319 8.55299 57.3422 8.5489C57.3641 8.54026 57.2809 8.57817 57.1424 8.54123C57.0755 8.52338 57.0184 8.49348 56.9751 8.46093C56.9337 8.42991 56.9137 8.4034 56.9096 8.39749C56.9058 8.39221 56.9142 8.40281 56.9292 8.43843C56.9442 8.47369 56.9628 8.52647 56.9821 8.60096L57.9501 8.35L58.9181 8.09904C58.7834 7.57972 58.4662 6.82435 57.6577 6.60876C56.8996 6.40659 56.2312 6.83373 55.8132 7.17904L56.4501 7.95ZM57.9501 8.35L56.9799 8.59253C57.0681 8.94511 57.0842 9.46217 56.9637 10.1856L57.9501 10.35L58.9365 10.5144C59.0826 9.63782 59.0987 8.82155 58.9202 8.10746L57.9501 8.35ZM57.9501 10.35L56.9655 10.175C56.8316 10.9279 56.7301 11.5284 56.6617 11.9729C56.5989 12.3811 56.5501 12.7404 56.5501 12.95H57.5501H58.5501C58.5501 12.958 58.5512 12.9134 58.5678 12.7766C58.5827 12.6539 58.6059 12.4885 58.6384 12.2771C58.7034 11.855 58.8018 11.2721 58.9346 10.525L57.9501 10.35ZM57.5501 12.95H56.5501C56.5501 13.5939 56.9209 14.0783 57.2916 14.4026L57.9501 13.65L58.6086 12.8974C58.5726 12.8659 58.5489 12.8413 58.5343 12.8242C58.5197 12.8072 58.5162 12.8002 58.5183 12.8039C58.5206 12.8079 58.529 12.8236 58.5366 12.8503C58.5444 12.8777 58.5501 12.9118 58.5501 12.95H57.5501ZM57.9501 13.65L57.2743 14.3872C57.8091 14.8773 58.6622 15.3314 59.7133 15.7722L60.1001 14.85L60.4868 13.9278C59.4713 13.5019 58.891 13.156 58.6258 12.9128L57.9501 13.65ZM60.1001 14.85L59.6528 15.7444C59.7862 15.8111 60.0195 15.9278 60.3528 16.0944L60.8001 15.2L61.2473 14.3056C60.9139 14.1389 60.6806 14.0222 60.5473 13.9556L60.1001 14.85ZM60.8001 15.2L60.4583 16.1398C60.8209 16.2716 61.0683 16.3602 61.1838 16.3987L61.5001 15.45L61.8163 14.5013C61.7318 14.4732 61.5125 14.395 61.1418 14.2602L60.8001 15.2ZM61.5001 15.45L61.1154 16.3731C61.5376 16.549 62.0392 16.739 62.6172 16.943L62.9501 16L63.2829 15.057C62.7275 14.861 62.2625 14.6844 61.8847 14.5269L61.5001 15.45ZM62.9501 16L62.6044 16.9383C62.9165 17.0533 63.1539 17.1445 63.3214 17.213C63.4055 17.2474 63.465 17.2733 63.504 17.2914C63.5559 17.3155 63.5383 17.3107 63.4954 17.2821L64.0501 16.45L64.6048 15.6179C64.4556 15.5185 64.2397 15.4278 64.0787 15.362C63.8795 15.2805 63.617 15.18 63.2958 15.0617L62.9501 16ZM64.0501 16.45L63.4954 17.282C63.6355 17.3755 63.8365 17.4643 63.9936 17.5316C64.1837 17.6131 64.4332 17.7136 64.7376 17.832L65.1001 16.9L65.4625 15.968C65.167 15.8531 64.9414 15.7619 64.7815 15.6934C64.7012 15.659 64.6439 15.633 64.6058 15.6146C64.5568 15.5911 64.5687 15.5939 64.6048 15.618L64.0501 16.45ZM65.1001 16.9L64.7672 17.843C65.2858 18.026 66.0663 18.3589 67.1256 18.8555L67.5501 17.95L67.9745 17.0445C66.9005 16.5411 66.0476 16.174 65.4329 15.957L65.1001 16.9ZM67.5501 17.95L67.0906 18.8382C68.0617 19.3405 68.8817 19.6973 69.4905 19.8278L69.7001 18.85L69.9096 17.8722C69.5851 17.8027 68.9717 17.5595 68.0095 17.0618L67.5501 17.95ZM69.7001 18.85L69.4684 19.8228C69.6187 19.8586 69.7349 19.8928 69.8219 19.9237C69.9117 19.9555 69.9522 19.9775 69.9606 19.9825C69.975 19.9912 69.9066 19.9551 69.8341 19.8505C69.7948 19.7936 69.7533 19.7149 69.7274 19.615C69.701 19.5133 69.6958 19.4085 69.7101 19.3086L70.7001 19.45L71.69 19.5914C71.7955 18.853 71.254 18.4262 70.9896 18.2675C70.6897 18.0876 70.3118 17.9677 69.9317 17.8772L69.7001 18.85ZM70.7001 19.45H69.7001C69.7001 19.0924 69.9139 18.8946 69.9736 18.8481C70.028 18.8059 70.0378 18.8166 69.9338 18.8513L70.2501 19.8L70.5663 20.7487C70.7623 20.6834 70.9971 20.5858 71.2015 20.4268C71.4112 20.2637 71.7001 19.941 71.7001 19.45H70.7001ZM70.2501 19.8L69.9753 18.8385C70.0451 18.8185 70.0564 18.8278 69.9313 18.8317C69.831 18.8349 69.6862 18.8336 69.49 18.8258C69.0991 18.8102 68.5524 18.7703 67.8427 18.7043L67.7501 19.7L67.6574 20.6957C68.381 20.763 68.9677 20.8065 69.4101 20.8242C69.6306 20.833 69.8274 20.836 69.9938 20.8308C70.1354 20.8263 70.3384 20.8148 70.5248 20.7615L70.2501 19.8ZM67.7501 19.7L67.8683 18.707C66.4506 18.5382 65.6261 18.3963 65.2941 18.2942L65.0001 19.25L64.706 20.2058C65.2407 20.3703 66.2495 20.5284 67.6318 20.693L67.7501 19.7ZM65.0001 19.25L65.4473 18.3556C65.3523 18.3081 65.2539 18.2794 65.241 18.2755C65.1991 18.2626 65.151 18.249 65.1007 18.2352C64.9988 18.2074 64.8616 18.1721 64.6926 18.1299C64.3531 18.045 63.865 17.9272 63.2305 17.7769L63.0001 18.75L62.7696 19.7231C63.4018 19.8728 63.8803 19.9883 64.2075 20.0701C64.3718 20.1112 64.493 20.1425 64.5744 20.1648C64.6158 20.176 64.6406 20.1833 64.6529 20.187C64.6942 20.1997 64.6311 20.1836 64.5528 20.1444L65.0001 19.25ZM63.0001 18.75L63.2017 17.7705C62.1225 17.5483 60.8148 17.1784 59.2723 16.6533L58.9501 17.6L58.6278 18.5466C60.2187 19.0882 61.611 19.485 62.7984 19.7295L63.0001 18.75ZM58.9501 17.6L59.3973 16.7056C59.2083 16.6111 58.9944 16.5274 58.7663 16.4513L58.4501 17.4L58.1338 18.3487C58.3057 18.406 58.4252 18.4556 58.5029 18.4944L58.9501 17.6ZM58.4501 17.4L58.7829 16.457C58.2062 16.2535 57.7244 16.098 57.3467 15.9967C57.1584 15.9461 56.9806 15.9049 56.8209 15.8787C56.6835 15.8563 56.4734 15.8294 56.2586 15.86L56.4001 16.85L56.5415 17.8399C56.4434 17.854 56.4062 17.8375 56.4979 17.8525C56.5674 17.8639 56.675 17.8872 56.8284 17.9283C57.134 18.0103 57.5606 18.1465 58.1172 18.343L58.4501 17.4ZM56.4001 16.85V15.85C55.8799 15.85 55.523 16.1634 55.344 16.3552C55.1418 16.5718 54.969 16.8458 54.8177 17.1294L55.7001 17.6L56.5824 18.0706C56.6374 17.9675 56.6854 17.8873 56.7259 17.8266C56.7671 17.7647 56.7944 17.7324 56.8061 17.7198C56.8198 17.7051 56.8001 17.7304 56.7435 17.7631C56.6834 17.7978 56.5644 17.85 56.4001 17.85V16.85ZM55.7001 17.6L54.993 16.8929C54.8695 17.0164 54.7478 17.1684 54.6556 17.3528L55.5501 17.8L56.4445 18.2472C56.419 18.2983 56.3973 18.317 56.4072 18.3071L55.7001 17.6ZM55.5501 17.8L54.6839 17.3003C53.6761 19.047 52.5534 21.0917 51.316 23.4327L52.2001 23.9L53.0842 24.3673C54.3134 22.0417 55.424 20.0196 56.4162 18.2997L55.5501 17.8ZM52.2001 23.9L51.3142 23.436C50.2045 25.5546 49.4773 26.8066 49.1057 27.2925L49.9001 27.9L50.6944 28.5075C51.1895 27.86 51.9956 26.4454 53.0859 24.364L52.2001 23.9ZM49.9001 27.9L49.1001 27.3C48.9528 27.4963 48.8475 27.5753 48.799 27.6025C48.7777 27.6144 48.7718 27.6139 48.7795 27.6124C48.7882 27.6107 48.7975 27.6109 48.8021 27.6116L48.6501 28.6L48.498 29.5884C49.4654 29.7372 50.205 29.16 50.7001 28.5L49.9001 27.9ZM48.6501 28.6L48.8926 27.6299C48.8813 27.627 48.8942 27.629 48.9223 27.6431C48.951 27.6575 49.0019 27.6876 49.0572 27.7429L48.3501 28.45L47.643 29.1571C47.8835 29.3976 48.1739 29.5117 48.4075 29.5701L48.6501 28.6ZM48.3501 28.45L49.1821 27.8953C49.2573 28.008 49.2765 28.1079 49.2814 28.1521C49.2861 28.1938 49.2801 28.2026 49.2865 28.1644L48.3001 28L47.3137 27.8356C47.2653 28.1258 47.2406 28.5886 47.518 29.0047L48.3501 28.45ZM48.3001 28L49.2865 28.1644C49.2977 28.0972 49.3368 27.9625 49.4445 27.7472L48.5501 27.3L47.6556 26.8528C47.4966 27.1708 47.3691 27.5028 47.3137 27.8356L48.3001 28ZM48.5501 27.3L49.4445 27.7472C49.5645 27.5072 49.7361 27.1942 49.9638 26.8039L49.1001 26.3L48.2363 25.7961C47.9973 26.2058 47.8023 26.5595 47.6556 26.8528L48.5501 27.3ZM49.1001 26.3L49.9662 26.7997C50.5001 25.8744 51.2207 24.3238 52.1214 22.1887L51.2001 21.8L50.2787 21.4113C49.3795 23.5428 48.7 24.9923 48.2339 25.8003L49.1001 26.3ZM51.2001 21.8L52.1192 22.1939C52.9185 20.3288 53.4382 19.1053 53.6747 18.5308L52.7501 18.15L51.8254 17.7692C51.5953 18.3281 51.0816 19.5378 50.2809 21.4061L51.2001 21.8ZM52.7501 18.15L53.6701 18.5417C55.104 15.1738 55.9845 12.6209 56.2387 10.9504L55.2501 10.8L54.2614 10.6496C54.049 12.0458 53.2628 14.3929 51.83 17.7583L52.7501 18.15ZM55.2501 10.8L56.2371 10.9607C56.4641 9.56605 56.8195 8.94122 57.0858 8.72193L56.4501 7.95L55.8144 7.17807C54.9473 7.8921 54.5027 9.16728 54.2631 10.6393L55.2501 10.8ZM74.4501 20.45L74.8973 21.3444C75.6269 20.9796 76.1996 20.7016 76.6191 20.508L76.2001 19.6L75.781 18.692C75.3339 18.8984 74.7399 19.187 74.0028 19.5556L74.4501 20.45ZM76.2001 19.6L76.6473 20.4944C77.084 20.2761 77.3831 20.167 77.567 20.1262L77.3501 19.15L77.1331 18.1738C76.717 18.2663 76.2495 18.4573 75.7528 18.7056L76.2001 19.6ZM77.3501 19.15L77.6663 20.0987C77.7233 20.0797 77.7707 20.0657 77.8093 20.0558C77.8483 20.0457 77.8745 20.0407 77.8896 20.0384C77.9054 20.0359 77.9024 20.0375 77.8844 20.0375C77.8675 20.0375 77.8216 20.0362 77.7575 20.0201L78.0001 19.05L78.2426 18.0799C77.993 18.0175 77.7561 18.0354 77.5855 18.0616C77.403 18.0897 77.2161 18.1406 77.0338 18.2013L77.3501 19.15ZM78.0001 19.05L77.7575 20.0201C77.6306 19.9884 77.4963 19.9126 77.3943 19.7902C77.3017 19.679 77.2758 19.5778 77.2695 19.5461L78.2501 19.35L79.2306 19.1539C79.191 18.9555 79.1068 18.721 78.9308 18.5098C78.7455 18.2874 78.5028 18.1449 78.2426 18.0799L78.0001 19.05ZM78.2501 19.35L77.2601 19.4914C77.2213 19.22 77.3177 19.0328 77.3326 19.0037C77.3577 18.9546 77.3736 18.9411 77.3497 18.9696C77.3038 19.0243 77.2007 19.1288 77.0118 19.2907C76.6412 19.6084 76.0523 20.0528 75.2266 20.6308L75.8001 21.45L76.3735 22.2692C77.2145 21.6805 77.8673 21.1916 78.3134 20.8093C78.5327 20.6212 78.7318 20.434 78.8817 20.2554C78.9556 20.1672 79.043 20.0516 79.1129 19.915C79.1726 19.7984 79.2871 19.5384 79.24 19.2086L78.2501 19.35ZM75.8001 21.45L75.2188 20.6363C73.6191 21.7789 71.9715 22.8065 70.276 23.7195L70.7501 24.6L71.2242 25.4805C72.9953 24.5268 74.7144 23.4544 76.3813 22.2637L75.8001 21.45ZM70.7501 24.6L70.4338 23.6513C70.3221 23.6886 70.1969 23.7531 70.1344 23.7852C70.0421 23.8325 69.9242 23.8955 69.7837 23.9721C69.5016 24.126 69.1086 24.3458 68.607 24.63L69.1001 25.5L69.5931 26.37C70.0915 26.0876 70.4735 25.874 70.7414 25.7279C70.8759 25.6545 70.9768 25.6008 71.047 25.5648C71.1469 25.5136 71.128 25.5281 71.0663 25.5487L70.7501 24.6ZM69.1001 25.5L68.6039 24.6318C68.2554 24.8309 67.9957 24.977 67.8212 25.0721C67.7327 25.1204 67.6742 25.1511 67.6404 25.1681C67.6219 25.1773 67.6223 25.1766 67.6343 25.1715C67.6392 25.1694 67.6616 25.1598 67.694 25.149C67.7103 25.1435 67.7403 25.134 67.7793 25.125C67.8094 25.1181 67.892 25.1 68.0001 25.1V26.1V27.1C68.1805 27.1 68.3214 27.048 68.3264 27.0463C68.3682 27.0324 68.4026 27.0181 68.4221 27.0098C68.4633 26.9921 68.5033 26.9727 68.5348 26.9569C68.6009 26.9239 68.6841 26.8796 68.7789 26.8279C68.9711 26.723 69.2447 26.5691 69.5962 26.3682L69.1001 25.5ZM68.0001 26.1V25.1C67.8632 25.1 67.7588 25.129 67.734 25.1358C67.6924 25.1472 67.6597 25.159 67.642 25.1657C67.6059 25.1793 67.5769 25.1925 67.5627 25.1991C67.5317 25.2135 67.5024 25.2285 67.4816 25.2395C67.437 25.2628 67.3816 25.2934 67.3199 25.328C67.1943 25.3985 67.015 25.5017 66.7847 25.6357C66.3228 25.9044 65.6408 26.306 64.7403 26.8397L65.2501 27.7L65.7599 28.5603C66.6593 28.0273 67.3357 27.6289 67.7905 27.3643C68.0185 27.2317 68.1871 27.1348 68.299 27.072C68.356 27.04 68.3917 27.0205 68.4107 27.0105C68.4217 27.0048 68.4173 27.0074 68.4042 27.0134C68.399 27.0158 68.3773 27.0259 68.3467 27.0374C68.3318 27.0431 68.3014 27.0541 68.2617 27.065C68.2388 27.0712 68.1359 27.1 68.0001 27.1V26.1ZM65.2501 27.7L64.7356 26.8425C63.0754 27.8386 61.5673 28.7169 60.2108 29.4779L60.7001 30.35L61.1893 31.2221C62.5662 30.4497 64.0914 29.5614 65.7646 28.5575L65.2501 27.7ZM60.7001 30.35L60.216 29.475C57.0578 31.2221 53.7694 33.2188 50.351 35.4642L50.9001 36.3L51.4491 37.1358C54.8307 34.9145 58.0757 32.9446 61.1841 31.225L60.7001 30.35ZM50.9001 36.3L50.3516 35.4638C49.5969 35.9589 48.9611 36.3303 48.4393 36.5873C47.9051 36.8506 47.5449 36.9663 47.3289 36.9982C47.0981 37.0323 47.2438 36.9477 47.41 37.1246C47.549 37.2724 47.463 37.3574 47.4947 37.0536L46.5001 36.95L45.5054 36.8464C45.4538 37.3426 45.4886 38.0005 45.9526 38.4942C46.4438 39.0169 47.1187 39.051 47.6212 38.9768C48.1386 38.9003 48.7159 38.6807 49.3233 38.3814C49.9432 38.076 50.6532 37.6578 51.4485 37.1362L50.9001 36.3ZM46.5001 36.95L47.4702 37.1925C47.5035 37.0592 47.5369 36.9259 47.5702 36.7925L46.6001 36.55L45.6299 36.3075C45.5966 36.4408 45.5633 36.5741 45.5299 36.7075L46.5001 36.95ZM46.6001 36.55L47.5829 36.7343C47.5721 36.792 47.5615 36.7711 47.64 36.6567C47.7128 36.5508 47.8336 36.4057 48.0197 36.2196C48.3922 35.847 48.958 35.3776 49.7392 34.808L49.1501 34L48.5609 33.192C47.7421 33.789 47.0829 34.328 46.6055 34.8054C46.3665 35.0443 46.1561 35.2846 45.9914 35.5245C45.8324 35.756 45.678 36.0413 45.6172 36.3657L46.6001 36.55ZM49.1501 34L49.7392 34.808C51.2939 33.6744 53.2712 32.4472 55.6806 31.127L55.2001 30.25L54.7195 29.373C52.2622 30.7195 50.2062 31.9923 48.5609 33.192L49.1501 34ZM55.2001 30.25L55.6473 31.1444C55.8605 31.0378 56.2211 30.8488 56.7206 30.5824L56.2501 29.7L55.7795 28.8176C55.279 29.0845 54.9397 29.2622 54.7528 29.3556L55.2001 30.25ZM56.2501 29.7L56.6973 30.5944C57.2293 30.3284 57.6471 30.1038 57.9048 29.932L57.3501 29.1L56.7954 28.268C56.653 28.3628 56.3375 28.5383 55.8028 28.8056L56.2501 29.7ZM57.3501 29.1L57.744 30.0191C58.0349 29.8945 58.8755 29.4448 60.182 28.7262L59.7001 27.85L59.2181 26.9738C57.8579 27.7219 57.1319 28.1055 56.9561 28.1809L57.3501 29.1ZM59.7001 27.85L60.2146 28.7075C60.5227 28.5226 61.3484 28.0687 62.7229 27.3312L62.2501 26.45L61.7772 25.5688C60.4184 26.298 59.5441 26.7774 59.1856 26.9925L59.7001 27.85ZM62.2501 26.45L62.7331 27.3256C63.6784 26.8041 65.1278 26.0625 67.0912 25.0974L66.6501 24.2L66.2089 23.3026C64.239 24.2708 62.7551 25.0293 61.767 25.5744L62.2501 26.45ZM66.6501 24.2L67.0852 25.1003C69.0889 24.1319 70.3737 23.5227 70.9562 23.2638L70.5501 22.35L70.1439 21.4362C69.5265 21.7106 68.2112 22.3348 66.2149 23.2997L66.6501 24.2ZM70.5501 22.35L70.9397 23.271C71.8445 22.8882 73.1734 22.2396 74.9109 21.3375L74.4501 20.45L73.9892 19.5625C72.26 20.4604 70.989 21.0785 70.1604 21.429L70.5501 22.35ZM73.1501 27.15L73.5973 28.0444C73.9462 27.8699 74.2178 27.7503 74.4193 27.6764C74.6465 27.5931 74.7008 27.6 74.6501 27.6V26.6V25.6C74.3327 25.6 74.0036 25.6986 73.7308 25.7986C73.4323 25.9081 73.0872 26.0634 72.7029 26.2556L73.1501 27.15ZM74.6501 26.6L74.7605 27.5939C74.7359 27.5966 74.7034 27.5963 74.6672 27.5888C74.6311 27.5814 74.603 27.5693 74.5848 27.5591C74.5518 27.5405 74.5731 27.5409 74.6308 27.6235L75.4501 27.05L76.2693 26.4765C75.9099 25.9631 75.328 25.5185 74.5396 25.6061L74.6501 26.6ZM75.4501 27.05L74.6908 27.7008C74.6639 27.6694 74.6955 27.6923 74.7413 27.8466C74.7843 27.9919 74.8255 28.2046 74.855 28.4995L75.8501 28.4L76.8451 28.3005C76.8079 27.9288 76.7492 27.5831 76.6589 27.2784C76.5712 26.9827 76.4362 26.664 76.2093 26.3992L75.4501 27.05ZM75.8501 28.4L74.855 28.4995C74.9193 29.1419 75.0679 31.3499 75.3019 35.1613L76.3001 35.1L77.2982 35.0387C77.0656 31.2501 76.9142 28.9915 76.8451 28.3005L75.8501 28.4ZM76.3001 35.1L75.3021 35.1634C75.434 37.2418 75.5535 38.6277 75.6672 39.2343L76.6501 39.05L77.6329 38.8657C77.5467 38.4057 77.4328 37.1582 77.2981 35.0366L76.3001 35.1ZM76.6501 39.05L75.6637 39.2144C75.7564 39.771 75.8538 40.6531 75.9533 41.8808L76.9501 41.8L77.9468 41.7192C77.8463 40.4802 77.7437 39.529 77.6365 38.8856L76.6501 39.05ZM76.9501 41.8L75.9518 41.8587C76.0193 43.0058 76.1044 43.9812 76.2085 44.7793L77.2001 44.65L78.1917 44.5207C78.0958 43.7855 78.0142 42.8608 77.9483 41.7413L76.9501 41.8ZM77.2001 44.65L76.2123 44.806C76.4039 46.0193 76.5349 47.5429 76.6007 49.3857L77.6001 49.35L78.5994 49.3143C78.5319 47.4238 78.3962 45.814 78.1878 44.494L77.2001 44.65ZM77.6001 49.35L76.6015 49.4035C76.6511 50.3302 76.6704 51.0147 76.6627 51.4706C76.6588 51.7025 76.6482 51.8462 76.6376 51.9222C76.632 51.9627 76.6307 51.9516 76.6435 51.9123C76.6501 51.8918 76.6674 51.8421 76.7028 51.7794C76.7353 51.7219 76.8097 51.6053 76.9501 51.5L77.5501 52.3L78.1501 53.1C78.4307 52.8895 78.5229 52.6002 78.5457 52.5299C78.5845 52.4103 78.6056 52.2914 78.6187 52.1965C78.6457 52.0017 78.658 51.7642 78.6624 51.5044C78.6714 50.977 78.649 50.2365 78.5986 49.2965L77.6001 49.35ZM77.5501 52.3L77.049 51.4346C77.0502 51.4339 77.2009 51.3529 77.4183 51.4219C77.6104 51.4829 77.6594 51.6015 77.6219 51.5385C77.5873 51.4805 77.5259 51.3429 77.4608 51.0825C77.3977 50.83 77.3405 50.5012 77.2937 50.0875L76.3001 50.2L75.3064 50.3125C75.4079 51.2087 75.577 52.0134 75.9033 52.5615C76.0741 52.8485 76.3585 53.1838 76.8131 53.3281C77.293 53.4805 77.7332 53.3495 78.0511 53.1654L77.5501 52.3ZM76.3001 50.2L77.29 50.0586C77.2567 49.8252 77.2233 49.5919 77.19 49.3586L76.2001 49.5L75.2101 49.6414C75.2434 49.8748 75.2768 50.1081 75.3101 50.3414L76.3001 50.2ZM76.2001 49.5L77.1977 49.4312C77.1275 48.4134 76.9706 47.3035 76.7306 46.1039L75.7501 46.3L74.7695 46.4961C74.9962 47.6298 75.1393 48.6532 75.2024 49.5688L76.2001 49.5ZM75.7501 46.3L76.7295 46.0983C75.5681 40.4574 74.8776 35.758 74.6482 31.9892L73.6501 32.05L72.6519 32.1108C72.8892 36.0087 73.5986 40.8093 74.7706 46.5017L75.7501 46.3ZM73.6501 32.05L74.6496 32.0206C74.6326 31.4399 74.5934 30.9444 74.517 30.5733C74.4807 30.3968 74.4215 30.1726 74.3074 29.9684C74.2074 29.7896 73.9005 29.35 73.3001 29.35V30.35V31.35C72.7997 31.35 72.5823 30.9812 72.5615 30.9441C72.5266 30.8816 72.5361 30.8698 72.5581 30.9767C72.5984 31.1723 72.6342 31.5268 72.6505 32.0794L73.6501 32.05ZM73.3001 30.35V29.35C73.1019 29.35 72.9451 29.4055 72.8755 29.4323C72.7896 29.4653 72.7129 29.5045 72.6519 29.5383C72.5294 29.6064 72.3988 29.6934 72.2688 29.7863L72.8501 30.6L73.4313 31.4137C73.4809 31.3783 73.5221 31.3501 73.5557 31.3282C73.5899 31.3059 73.6118 31.293 73.6232 31.2867C73.6372 31.2789 73.6251 31.2868 73.5934 31.299C73.5767 31.3054 73.5454 31.3166 73.5028 31.3267C73.4623 31.3363 73.3914 31.35 73.3001 31.35V30.35ZM72.8501 30.6L72.2361 29.8106C72.1678 29.8638 72.1095 29.9077 72.0604 29.9432C72.0107 29.9792 71.9748 30.0035 71.9507 30.0188C71.9389 30.0263 71.9325 30.0301 71.9307 30.0311C71.9284 30.0324 71.935 30.0285 71.9491 30.0219C71.9614 30.0162 71.9931 30.0019 72.0394 29.9879C72.0634 29.9806 72.0965 29.9717 72.1373 29.9644C72.1773 29.9572 72.233 29.95 72.3001 29.95V30.95V31.95C72.5498 31.95 72.7431 31.8584 72.7948 31.8343C72.881 31.7941 72.9602 31.747 73.0244 31.7062C73.1551 31.623 73.3046 31.5134 73.464 31.3894L72.8501 30.6ZM72.3001 30.95V29.95C72.0772 29.95 71.8938 30.0205 71.8263 30.0469C71.7292 30.0849 71.6328 30.1321 71.5447 30.1787C71.3666 30.273 71.1519 30.4028 70.9093 30.5588L71.4501 31.4L71.9908 32.2412C72.2149 32.0972 72.3752 32.002 72.4804 31.9463C72.534 31.9179 72.5563 31.9089 72.5551 31.9094C72.554 31.9098 72.5352 31.9172 72.503 31.9255C72.4765 31.9324 72.4024 31.95 72.3001 31.95V30.95ZM71.4501 31.4L70.8361 30.6106C70.7541 30.6744 70.5256 30.8201 70.088 31.0641C69.6695 31.2976 69.1063 31.5956 68.3946 31.9598L68.8501 32.85L69.3055 33.7402C70.0272 33.371 70.614 33.0608 71.0621 32.8109C71.4912 32.5716 71.846 32.3589 72.064 32.1894L71.4501 31.4ZM68.8501 32.85L68.3875 31.9634C67.6184 32.3647 66.6665 32.8657 65.5322 33.4662L66.0001 34.35L66.4679 35.2338C67.6003 34.6343 68.5484 34.1353 69.3126 33.7366L68.8501 32.85ZM66.0001 34.35L65.5075 33.4797C63.7135 34.4952 62.6523 35.0129 62.2179 35.1406L62.5001 36.1L62.7822 37.0594C63.4811 36.8538 64.7533 36.2048 66.4927 35.2203L66.0001 34.35ZM62.5001 36.1L62.2018 35.1455C62.1311 35.1676 62.0899 35.1725 62.0737 35.1734C62.0591 35.1742 62.0727 35.1714 62.1037 35.1808C62.1189 35.1854 62.1355 35.1922 62.1525 35.2014C62.1694 35.2105 62.1838 35.2206 62.1954 35.2304C62.219 35.2502 62.2227 35.2613 62.2138 35.2461L61.3501 35.75L60.4863 36.2539C60.7088 36.6353 61.0512 36.9511 61.5214 37.0942C61.9675 37.2299 62.413 37.1749 62.7983 37.0545L62.5001 36.1ZM61.3501 35.75L62.2017 35.2259C62.1501 35.1421 62.1013 35.0336 62.2445 34.7472L61.3501 34.3L60.4556 33.8528C60.0655 34.6331 60.0167 35.4913 60.4984 36.2741L61.3501 35.75ZM61.3501 34.3L62.2338 34.7679C62.4212 34.4141 62.7358 34.1002 63.2473 33.8444L62.8001 32.95L62.3528 32.0556C61.531 32.4665 60.879 33.0526 60.4663 33.8321L61.3501 34.3ZM62.8001 32.95L63.2857 33.8242C63.8883 33.4894 66.3578 32.1045 70.6897 29.6719L70.2001 28.8L69.7104 27.9281C65.3757 30.3622 62.9118 31.7439 62.3144 32.0758L62.8001 32.95ZM70.2001 28.8L70.7039 29.6638C71.0919 29.4375 72.064 28.8936 73.6341 28.025L73.1501 27.15L72.666 26.275C71.1028 27.1397 70.1082 27.6959 69.6962 27.9362L70.2001 28.8Z" fill="white" mask="url(#path-1-outside-1_1_741)"/>
</g>
<defs>
<filter id="filter0_d_1_741" x="0.721863" y="0.55658" width="88.5292" height="66.8384" filterUnits="userSpaceOnUse" color-interpolation-filters="sRGB">
<feFlood flood-opacity="0" result="BackgroundImageFix"/>
<feColorMatrix in="SourceAlpha" type="matrix" values="0 0 0 0 0 0 0 0 0 0 0 0 0 0 0 0 0 0 127 0" result="hardAlpha"/>
<feOffset dy="4"/>
<feGaussianBlur stdDeviation="5"/>
<feComposite in2="hardAlpha" operator="out"/>
<feColorMatrix type="matrix" values="0 0 0 0 1 0 0 0 0 1 0 0 0 0 1 0 0 0 0.3 0"/>
<feBlend mode="normal" in2="BackgroundImageFix" result="effect1_dropShadow_1_741"/>
<feBlend mode="normal" in="SourceGraphic" in2="effect1_dropShadow_1_741" result="shape"/>
</filter>
</defs>
</svg>
